:FULLY-SPECIFIED
:FORCE-ALL-JOINTS-BE-3DOF
:DEGREES
612
root -4.43777 15.5938 -40.5205 -4.12103 -75.0172 10.935
lfemur -7.43981 12.9874 -15.8159
ltibia 43.9096 -0 0
lfoot -22.199 29.6891 0.00355689
ltoes -23.776 0 0
rfemur -42.399 -31.4192 17.4616
rtibia 77.9502 -0 0
rfoot -14.4849 -17.5626 0.19092
rtoes -3.69208 0 0
lowerback 10.7676 4.87591 -6.49688
upperback -2.62611 5.47364 -1.22333
thorax -9.37408 2.94997 1.28543
lowerneck 1.42471 -10.7691 -11.8748
upperneck -0.983831 -14.61 11.4809
head 1.20457 -7.338 5.0113
lclavicle -6.31141e-14 1.98785e-15 0
lhumerus -72.0788 -23.7047 105.14
lradius 102.313 -0 0
lwrist 56.4406 0 0
lhand 7.82598 56.9771 2.28994e-05
lfingers 7.12502 -0 0
lthumb 33.0616 83.9643 2.15988e-05
rclavicle -6.31141e-14 1.98785e-15 0
rhumerus 26.0301 17.1497 -46.8016
rradius 93.802 -0 0
rwrist -26.6191 0 0
rhand -24.2509 -35.39 -0.0214437
rfingers 7.12502 -0 0
rthumb 2.23439 -65.3288 -0.0171395
613
root -4.37684 15.6191 -40.4796 -3.77621 -75.1919 10.691
lfemur -7.7389 13.0709 -16.0532
ltibia 43.9602 -0 0
lfoot -22.1612 29.7619 0.00273975
ltoes -23.8731 0 0
rfemur -42.0458 -31.7114 17.7651
rtibia 78.2991 -0 0
rfoot -14.7289 -18.1618 0.147006
rtoes -3.56678 0 0
lowerback 10.6539 4.90334 -6.54534
upperback -2.68933 5.50665 -1.26787
thorax -9.38113 2.96896 1.26213
lowerneck 1.37321 -10.7502 -11.8722
upperneck -0.901084 -14.5854 11.5258
head 1.2378 -7.32483 5.01892
lclavicle -6.31141e-14 1.98785e-15 0
lhumerus -72.1035 -23.7958 105.169
lradius 102.296 -0 0
lwrist 56.3206 0 0
lhand 7.82524 56.953 1.76387e-05
lfingers 7.12502 -0 0
lthumb 33.0609 83.9404 1.66369e-05
rclavicle -6.31141e-14 1.98785e-15 0
rhumerus 26.3471 17.1937 -46.8141
rradius 95.4813 -0 0
rwrist -27.5202 0 0
rhand -24.5484 -35.3344 -0.0165161
rfingers 7.12502 -0 0
rthumb 1.94726 -65.2827 -0.0132011
614
root -4.31591 15.6445 -40.4388 -3.42442 -75.3662 10.44
lfemur -8.03844 13.1531 -16.2911
ltibia 44.0108 -0 0
lfoot -22.1235 29.8348 0.00187456
ltoes -23.9702 0 0
rfemur -41.6934 -32.0051 18.0675
rtibia 78.6481 -0 0
rfoot -14.9724 -18.7608 0.100545
rtoes -3.44148 0 0
lowerback 10.5402 4.93068 -6.59387
upperback -2.75258 5.53961 -1.31245
thorax -9.3882 2.98796 1.23882
lowerneck 1.32172 -10.7313 -11.8697
upperneck -0.818326 -14.5609 11.5707
head 1.27103 -7.31166 5.02655
lclavicle -6.31141e-14 1.98785e-15 0
lhumerus -72.1282 -23.887 105.198
lradius 102.279 -0 0
lwrist 56.2007 0 0
lhand 7.82451 56.929 1.20686e-05
lfingers 7.12502 -0 0
lthumb 33.0602 83.9165 1.13831e-05
rclavicle -6.31141e-14 1.98785e-15 0
rhumerus 26.6643 17.2377 -46.8263
rradius 97.1605 -0 0
rwrist -28.4214 0 0
rhand -24.8458 -35.2787 -0.0112996
rfingers 7.12502 -0 0
rthumb 1.66012 -65.2366 -0.0090316
615
root -4.25497 15.6698 -40.3979 -3.06543 -75.5401 10.1817
lfemur -8.33843 13.2342 -16.5296
ltibia 44.0614 -0 0
lfoot -22.0857 29.9077 0.000961304
ltoes -24.0673 0 0
rfemur -41.3416 -32.3005 18.3687
rtibia 78.9971 -0 0
rfoot -15.2153 -19.3595 0.0515403
rtoes -3.31618 0 0
lowerback 10.4265 4.95792 -6.64245
upperback -2.81585 5.57252 -1.35707
thorax -9.39527 3.00694 1.21551
lowerneck 1.27023 -10.7125 -11.8672
upperneck -0.735557 -14.5365 11.6157
head 1.30427 -7.2985 5.03419
lclavicle -6.31141e-14 1.98785e-15 0
lhumerus -72.1531 -23.9782 105.227
lradius 102.261 -0 0
lwrist 56.0807 0 0
lhand 7.82377 56.9049 6.18903e-06
lfingers 7.12502 -0 0
lthumb 33.0595 83.8926 5.83749e-06
rclavicle -6.31141e-14 1.98785e-15 0
rhumerus 26.9814 17.2818 -46.8382
rradius 98.8398 -0 0
rwrist -29.3225 0 0
rhand -25.1433 -35.2231 -0.00579413
rfingers 7.12502 -0 0
rthumb 1.373 -65.1905 -0.00463121
616
root -4.19404 15.6951 -40.3571 357.301 -75.7136 369.916
lfemur -8.63886 13.314 -16.7685
ltibia 44.112 0 0
lfoot -22.0479 29.9806 0
ltoes -24.1644 0 0
rfemur -40.9905 -32.5974 18.6687
rtibia 79.3461 0 0
rfoot -15.4578 -19.9581 0
rtoes -3.19088 0 0
lowerback 10.3128 4.98507 -6.69108
upperback -2.87916 5.60538 -1.40172
thorax -9.40235 3.02593 1.1922
lowerneck 1.21875 -10.6936 -11.8647
upperneck -0.652777 -14.5121 11.6607
head 1.3375 -7.28534 5.04183
lclavicle -6.31141e-14 1.98785e-15 0
lhumerus -72.178 -24.0693 105.256
lradius 102.244 0 0
lwrist 55.9607 0 0
lhand 7.82303 56.8809 0
lfingers 7.12502 0 0
lthumb 33.0588 83.8687 0
rclavicle -6.31141e-14 1.98785e-15 0
rhumerus 27.2987 17.326 -46.8499
rradius 100.519 0 0
rwrist -30.2236 0 0
rhand -25.4408 -35.1675 0
rfingers 7.12502 0 0
rthumb 1.08587 -65.1445 0
617
root -4.25538 15.6883 -40.337 -1.61264 -76.1918 8.71828
lfemur -10.0656 13.2696 -16.7798
ltibia 44.9339 -0 0
lfoot -21.6923 29.196 -0.100484
ltoes -23.9015 0 0
rfemur -40.1786 -32.3117 18.7649
rtibia 78.6737 -0 0
rfoot -15.6915 -20.2149 0.0210537
rtoes -3.55474 0 0
lowerback 10.4504 4.92442 -6.38266
upperback -2.85216 5.5678 -1.26584
thorax -9.43572 2.99275 1.16952
lowerneck 1.13462 -10.5063 -11.7044
upperneck -0.584951 -14.2533 11.5111
head 1.33259 -7.15312 4.9867
lclavicle -3.66121e-15 -3.6595e-14 0
lhumerus -69.9135 -24.6621 104.781
lradius 101.769 -0 0
lwrist 54.6087 0 0
lhand 7.6042 56.0961 0.0616273
lfingers 7.12502 -0 0
lthumb 32.8493 83.1202 0.0561326
rclavicle -3.66121e-15 -3.6595e-14 0
rhumerus 27.2724 17.4715 -47.3192
rradius 100.818 -0 0
rwrist -30.5965 0 0
rhand -24.5941 -34.5304 0.19772
rfingers 7.12502 -0 0
rthumb 1.89521 -64.4247 0.21408
618
root -4.31673 15.6814 -40.317 -0.445214 -76.6642 7.4396
lfemur -11.4922 13.225 -16.7899
ltibia 45.7558 -0 0
lfoot -21.3354 28.4107 -0.196087
ltoes -23.6386 0 0
rfemur -39.3686 -32.0272 18.8655
rtibia 78.0013 -0 0
rfoot -15.9254 -20.4717 0.0410595
rtoes -3.9186 0 0
lowerback 10.5877 4.86303 -6.07442
upperback -2.82525 5.53016 -1.13
thorax -9.46908 2.95955 1.14686
lowerneck 1.05106 -10.3188 -11.5445
upperneck -0.517899 -13.9944 11.3621
head 1.32755 -7.02091 4.93157
lclavicle -3.66121e-15 -3.6595e-14 0
lhumerus -67.6329 -25.2373 104.278
lradius 101.295 -0 0
lwrist 53.2567 0 0
lhand 7.38455 55.3111 0.120251
lfingers 7.12502 -0 0
lthumb 32.6391 82.3715 0.109523
rclavicle -3.66121e-15 -3.6595e-14 0
rhumerus 27.2449 17.6168 -47.789
rradius 101.117 -0 0
rwrist -30.9695 0 0
rhand -23.7453 -33.8904 0.385992
rfingers 7.12502 -0 0
rthumb 2.7072 -63.7019 0.417955
619
root -4.37807 15.6746 -40.2969 0.811041 -77.1302 6.0722
lfemur -12.9184 13.1801 -16.7988
ltibia 46.5777 -0 0
lfoot -20.9771 27.6249 -0.286787
ltoes -23.3758 0 0
rfemur -38.5606 -31.7439 18.9705
rtibia 77.3288 -0 0
rfoot -16.1593 -20.7287 0.0600166
rtoes -4.28246 0 0
lowerback 10.7247 4.80091 -5.76636
upperback -2.79843 5.49246 -0.994174
thorax -9.50242 2.92634 1.12423
lowerneck 0.968093 -10.1311 -11.385
upperneck -0.451615 -13.7353 11.2135
head 1.32238 -6.88871 4.87645
lclavicle -3.66121e-15 -3.6595e-14 0
lhumerus -65.336 -25.7938 103.747
lradius 100.82 -0 0
lwrist 51.9048 0 0
lhand 7.16412 54.5258 0.17586
lfingers 7.12502 -0 0
lthumb 32.4282 81.6225 0.160162
rclavicle -3.66121e-15 -3.6595e-14 0
rhumerus 27.216 17.7619 -48.2592
rradius 101.416 -0 0
rwrist -31.3424 0 0
rhand -22.8944 -33.2477 0.564751
rfingers 7.12502 -0 0
rthumb 3.52172 -62.9762 0.61155
620
root -4.43942 15.6678 -40.2768 2.16468 -77.589 4.60751
lfemur -14.3444 13.135 -16.8067
ltibia 47.3996 -0 0
lfoot -20.6177 26.8385 -0.372564
ltoes -23.1129 0 0
rfemur -37.7544 -31.4619 19.0799
rtibia 76.6564 -0 0
rfoot -16.3933 -20.9857 0.0779245
rtoes -4.64632 0 0
lowerback 10.8612 4.73806 -5.45847
upperback -2.7717 5.45469 -0.858378
thorax -9.53575 2.89311 1.10161
lowerneck 0.885702 -9.94316 -11.2258
upperneck -0.386095 -13.476 11.0654
head 1.31708 -6.75651 4.82133
lclavicle -3.66121e-15 -3.6595e-14 0
lhumerus -63.0228 -26.3306 103.19
lradius 100.346 -0 0
lwrist 50.5528 0 0
lhand 6.94294 53.7404 0.228441
lfingers 7.12502 -0 0
lthumb 32.2166 80.8734 0.208039
rclavicle -3.66121e-15 -3.6595e-14 0
rhumerus 27.1859 17.9068 -48.7299
rradius 101.715 -0 0
rwrist -31.7154 0 0
rhand -22.0415 -32.6024 0.733934
rfingers 7.12502 -0 0
rthumb 4.33866 -62.2479 0.794795
621
root -4.50076 15.6609 -40.2568 3.62513 -78.0397 3.03612
lfemur -15.7701 13.0898 -16.8133
ltibia 48.2215 -0 0
lfoot -20.2571 26.0516 -0.453399
ltoes -22.85 0 0
rfemur -36.95 -31.1813 19.1936
rtibia 75.984 -0 0
rfoot -16.6273 -21.2428 0.0947824
rtoes -5.01018 0 0
lowerback 10.9975 4.67447 -5.15077
upperback -2.74506 5.41686 -0.722608
thorax -9.56907 2.85988 1.07901
lowerneck 0.803888 -9.75498 -11.0671
upperneck -0.321334 -13.2166 10.9177
head 1.31166 -6.62431 4.76621
lclavicle -3.66121e-15 -3.6595e-14 0
lhumerus -60.6931 -26.8467 102.606
lradius 99.8715 -0 0
lwrist 49.2008 0 0
lhand 6.72106 52.9547 0.277986
lfingers 7.12502 -0 0
lthumb 32.0045 80.1242 0.253146
rclavicle -3.66121e-15 -3.6595e-14 0
rhumerus 27.1545 18.0514 -49.2011
rradius 102.013 -0 0
rwrist -32.0883 0 0
rhand -21.1868 -31.9546 0.893484
rfingers 7.12502 -0 0
rthumb 5.1579 -61.5169 0.967622
